<svg width="22" height="22" viewBox="0 0 22 22" fill="none" xmlns="http://www.w3.org/2000/svg">
<g opacity="0.4">
<g clip-path="url(#clip0_924_2728)">
<path d="M14.8874 20.8587V13.5543C14.8874 13.3122 14.7912 13.08 14.62 12.9087C14.4488 12.7375 14.2165 12.6413 13.9744 12.6413H10.3222C10.0801 12.6413 9.84784 12.7375 9.67661 12.9087C9.50538 13.08 9.40918 13.3122 9.40918 13.5543V20.8587" stroke="white" stroke-width="2.2826" stroke-linecap="round" stroke-linejoin="round"/>
</g>
<g clip-path="url(#clip1_924_2728)">
<path d="M1.79004 9.46481C1.78997 9.1671 1.85485 8.87297 1.98016 8.60292C2.10546 8.33287 2.28817 8.09341 2.51555 7.90124L9.6785 1.7626C10.0479 1.4504 10.5159 1.27911 10.9995 1.27911C11.4832 1.27911 11.9512 1.4504 12.3207 1.7626L19.4835 7.90124C19.7109 8.09341 19.8937 8.33287 20.0189 8.60292C20.1443 8.87297 20.2091 9.1671 20.209 9.46481V18.6743C20.209 19.2171 19.9935 19.7376 19.6097 20.1215C19.2258 20.5053 18.7052 20.7208 18.1625 20.7208H3.8366C3.29382 20.7208 2.77327 20.5053 2.38946 20.1215C2.00566 19.7376 1.79004 19.2171 1.79004 18.6743V9.46481Z" stroke="white" stroke-width="2.5582" stroke-linecap="round" stroke-linejoin="round"/>
</g>
</g>
<defs>
<clipPath id="clip0_924_2728">
<rect width="7.79688" height="10.5" fill="white" transform="translate(8.25 11.5)"/>
</clipPath>
<clipPath id="clip1_924_2728">
<rect width="22" height="22" fill="white"/>
</clipPath>
</defs>
</svg>
